<mxfile host="app.diagrams.net" agent="Mozilla/5.0 (Windows NT 10.0; Win64; x64) AppleWebKit/537.36 (KHTML, like Gecko) Chrome/133.0.0.0 Safari/537.36" version="26.0.14">
  <diagram id="0RQHvXUaghpZFHt9X4FO" name="Страница — 1">
    <mxGraphModel dx="2220" dy="799" grid="1" gridSize="10" guides="1" tooltips="1" connect="1" arrows="1" fold="1" page="1" pageScale="1" pageWidth="827" pageHeight="1169" math="0" shadow="0">
      <root>
        <mxCell id="0" />
        <mxCell id="1" parent="0" />
        <mxCell id="HpewmkDFTjrqtG-DgkF_-1" value="&lt;b&gt;&lt;span style=&quot;font-size:14.0pt;font-family:&amp;quot;Times New Roman&amp;quot;,serif;&lt;br/&gt;mso-fareast-font-family:&amp;quot;Times New Roman&amp;quot;;mso-ansi-language:#1000;mso-fareast-language:&lt;br/&gt;#1000;mso-bidi-language:AR-SA&quot;&gt;Клиент&amp;nbsp;&lt;/span&gt;&lt;/b&gt;" style="shape=umlActor;verticalLabelPosition=bottom;verticalAlign=top;html=1;outlineConnect=0;" parent="1" vertex="1">
          <mxGeometry x="80" y="180" width="30" height="60" as="geometry" />
        </mxCell>
        <mxCell id="HpewmkDFTjrqtG-DgkF_-2" value="&lt;font face=&quot;Times New Roman, serif&quot;&gt;выбор способа доставки&lt;/font&gt;" style="ellipse;whiteSpace=wrap;html=1;" parent="1" vertex="1">
          <mxGeometry x="-30" y="40" width="180" height="50" as="geometry" />
        </mxCell>
        <mxCell id="HpewmkDFTjrqtG-DgkF_-3" value="" style="endArrow=classic;html=1;rounded=0;entryX=0.5;entryY=1;entryDx=0;entryDy=0;exitX=1;exitY=0.3333333333333333;exitDx=0;exitDy=0;exitPerimeter=0;" parent="1" target="HpewmkDFTjrqtG-DgkF_-2" edge="1" source="HpewmkDFTjrqtG-DgkF_-1">
          <mxGeometry width="50" height="50" relative="1" as="geometry">
            <mxPoint x="100" y="160" as="sourcePoint" />
            <mxPoint x="310" y="170" as="targetPoint" />
          </mxGeometry>
        </mxCell>
        <mxCell id="HpewmkDFTjrqtG-DgkF_-4" value="&lt;span style=&quot;font-family: &amp;quot;Times New Roman&amp;quot;, serif;&quot;&gt;&lt;font style=&quot;font-size: 12px;&quot;&gt;&amp;nbsp;фильтрация товаров по цене,&lt;br&gt;цвету, бренду&lt;/font&gt;&lt;/span&gt;" style="ellipse;whiteSpace=wrap;html=1;" parent="1" vertex="1">
          <mxGeometry x="150" y="50" width="170" height="60" as="geometry" />
        </mxCell>
        <mxCell id="HpewmkDFTjrqtG-DgkF_-5" value="" style="endArrow=classic;html=1;rounded=0;entryX=0.251;entryY=0.933;entryDx=0;entryDy=0;entryPerimeter=0;exitX=1;exitY=0.3333333333333333;exitDx=0;exitDy=0;exitPerimeter=0;" parent="1" target="HpewmkDFTjrqtG-DgkF_-4" edge="1" source="HpewmkDFTjrqtG-DgkF_-1">
          <mxGeometry width="50" height="50" relative="1" as="geometry">
            <mxPoint x="150" y="210" as="sourcePoint" />
            <mxPoint x="420" y="220" as="targetPoint" />
          </mxGeometry>
        </mxCell>
        <mxCell id="HpewmkDFTjrqtG-DgkF_-7" value="&lt;span style=&quot;font-family: &amp;quot;Times New Roman&amp;quot;, serif;&quot;&gt;&lt;font style=&quot;font-size: 12px;&quot;&gt;выбрать удобный способ доставки&lt;/font&gt;&lt;/span&gt;" style="ellipse;whiteSpace=wrap;html=1;" parent="1" vertex="1">
          <mxGeometry x="-170" y="270" width="160" height="50" as="geometry" />
        </mxCell>
        <mxCell id="HpewmkDFTjrqtG-DgkF_-8" value="" style="endArrow=classic;html=1;rounded=0;entryX=1;entryY=0;entryDx=0;entryDy=0;" parent="1" target="HpewmkDFTjrqtG-DgkF_-7" edge="1">
          <mxGeometry width="50" height="50" relative="1" as="geometry">
            <mxPoint x="80" y="200" as="sourcePoint" />
            <mxPoint x="430" y="300" as="targetPoint" />
          </mxGeometry>
        </mxCell>
        <mxCell id="HpewmkDFTjrqtG-DgkF_-9" value="&lt;font face=&quot;Times New Roman, serif&quot;&gt;просмотр товаров с фотом и описанием&amp;nbsp;&lt;/font&gt;" style="ellipse;whiteSpace=wrap;html=1;" parent="1" vertex="1">
          <mxGeometry x="-130" y="80" width="120" height="50" as="geometry" />
        </mxCell>
        <mxCell id="HpewmkDFTjrqtG-DgkF_-10" value="" style="endArrow=classic;html=1;rounded=0;entryX=0.772;entryY=0.92;entryDx=0;entryDy=0;entryPerimeter=0;exitX=0;exitY=0.3333333333333333;exitDx=0;exitDy=0;exitPerimeter=0;" parent="1" target="HpewmkDFTjrqtG-DgkF_-9" edge="1" source="HpewmkDFTjrqtG-DgkF_-1">
          <mxGeometry width="50" height="50" relative="1" as="geometry">
            <mxPoint x="40" y="170" as="sourcePoint" />
            <mxPoint x="170" y="190" as="targetPoint" />
          </mxGeometry>
        </mxCell>
        <mxCell id="HpewmkDFTjrqtG-DgkF_-11" value="&lt;span style=&quot;font-family: &amp;quot;Times New Roman&amp;quot;, serif;&quot;&gt;&lt;font style=&quot;font-size: 12px;&quot;&gt;добавление товаров в корзину и оформление заказа&lt;/font&gt;&lt;/span&gt;" style="ellipse;whiteSpace=wrap;html=1;" parent="1" vertex="1">
          <mxGeometry x="210" y="130" width="170" height="60" as="geometry" />
        </mxCell>
        <mxCell id="6EGxL7kNXMzWIibjKUPJ-1" value="&lt;span style=&quot;font-family: &amp;quot;Times New Roman&amp;quot;, serif;&quot;&gt;&lt;font style=&quot;font-size: 12px;&quot;&gt;&amp;nbsp;личный кабинет&lt;/font&gt;&lt;/span&gt;" style="ellipse;whiteSpace=wrap;html=1;" parent="1" vertex="1">
          <mxGeometry x="-40" y="300" width="160" height="50" as="geometry" />
        </mxCell>
        <mxCell id="6EGxL7kNXMzWIibjKUPJ-2" value="" style="endArrow=classic;html=1;rounded=0;entryX=0.5;entryY=0;entryDx=0;entryDy=0;entryPerimeter=0;" parent="1" target="6EGxL7kNXMzWIibjKUPJ-1" edge="1">
          <mxGeometry width="50" height="50" relative="1" as="geometry">
            <mxPoint x="80" y="200" as="sourcePoint" />
            <mxPoint x="96.39999999999995" y="300" as="targetPoint" />
          </mxGeometry>
        </mxCell>
        <mxCell id="6EGxL7kNXMzWIibjKUPJ-18" value="&lt;b&gt;&lt;span style=&quot;font-size:14.0pt;font-family:&amp;quot;Times New Roman&amp;quot;,serif;&lt;br/&gt;mso-fareast-font-family:&amp;quot;Times New Roman&amp;quot;;mso-ansi-language:#1000;mso-fareast-language:&lt;br/&gt;#1000;mso-bidi-language:AR-SA&quot;&gt;Администратор&lt;/span&gt;&lt;/b&gt;" style="shape=umlActor;verticalLabelPosition=bottom;verticalAlign=top;html=1;outlineConnect=0;" parent="1" vertex="1">
          <mxGeometry x="-50" y="490" width="20" height="60" as="geometry" />
        </mxCell>
        <mxCell id="6EGxL7kNXMzWIibjKUPJ-19" value="&lt;font face=&quot;Times New Roman, serif&quot;&gt;управление катологом(добовлять,редактировать,&lt;/font&gt;&lt;div&gt;&lt;font face=&quot;Times New Roman, serif&quot;&gt;удалять)&lt;/font&gt;&lt;/div&gt;" style="ellipse;whiteSpace=wrap;html=1;" parent="1" vertex="1">
          <mxGeometry x="10" y="400" width="200" height="70" as="geometry" />
        </mxCell>
        <mxCell id="6EGxL7kNXMzWIibjKUPJ-20" value="" style="endArrow=classic;html=1;rounded=0;entryX=0;entryY=1;entryDx=0;entryDy=0;exitX=1;exitY=0.3333333333333333;exitDx=0;exitDy=0;exitPerimeter=0;" parent="1" target="6EGxL7kNXMzWIibjKUPJ-19" edge="1" source="6EGxL7kNXMzWIibjKUPJ-18">
          <mxGeometry width="50" height="50" relative="1" as="geometry">
            <mxPoint x="-20" y="480" as="sourcePoint" />
            <mxPoint x="170" y="480" as="targetPoint" />
          </mxGeometry>
        </mxCell>
        <mxCell id="6EGxL7kNXMzWIibjKUPJ-21" value="&lt;span style=&quot;font-family: &amp;quot;Times New Roman&amp;quot;, serif;&quot;&gt;&lt;font style=&quot;font-size: 12px;&quot;&gt;анализирование продажи и поведение пользователей&lt;/font&gt;&lt;/span&gt;" style="ellipse;whiteSpace=wrap;html=1;" parent="1" vertex="1">
          <mxGeometry x="-240" y="590" width="120" height="50" as="geometry" />
        </mxCell>
        <mxCell id="6EGxL7kNXMzWIibjKUPJ-22" value="" style="endArrow=classic;html=1;rounded=0;entryX=0.563;entryY=0.034;entryDx=0;entryDy=0;entryPerimeter=0;" parent="1" target="6EGxL7kNXMzWIibjKUPJ-21" edge="1">
          <mxGeometry width="50" height="50" relative="1" as="geometry">
            <mxPoint x="-50" y="510" as="sourcePoint" />
            <mxPoint x="290" y="610" as="targetPoint" />
          </mxGeometry>
        </mxCell>
        <mxCell id="6EGxL7kNXMzWIibjKUPJ-23" value="&lt;font face=&quot;Times New Roman, serif&quot;&gt;отоброжение статуса&lt;/font&gt;&lt;div&gt;&lt;font face=&quot;Times New Roman, serif&quot;&gt;(доставлен,отправлен)&lt;/font&gt;&lt;/div&gt;" style="ellipse;whiteSpace=wrap;html=1;" parent="1" vertex="1">
          <mxGeometry x="-200" y="370" width="120" height="60" as="geometry" />
        </mxCell>
        <mxCell id="6EGxL7kNXMzWIibjKUPJ-24" value="" style="endArrow=classic;html=1;rounded=0;entryX=0.682;entryY=0.947;entryDx=0;entryDy=0;entryPerimeter=0;exitX=0;exitY=0.3333333333333333;exitDx=0;exitDy=0;exitPerimeter=0;" parent="1" target="6EGxL7kNXMzWIibjKUPJ-23" edge="1" source="6EGxL7kNXMzWIibjKUPJ-18">
          <mxGeometry width="50" height="50" relative="1" as="geometry">
            <mxPoint x="-70" y="480" as="sourcePoint" />
            <mxPoint x="30" y="500" as="targetPoint" />
          </mxGeometry>
        </mxCell>
        <mxCell id="6EGxL7kNXMzWIibjKUPJ-25" value="&lt;font face=&quot;Times New Roman, serif&quot;&gt;управление пользователями (блокировка)&lt;/font&gt;" style="ellipse;whiteSpace=wrap;html=1;" parent="1" vertex="1">
          <mxGeometry x="-270" y="480" width="140" height="50" as="geometry" />
        </mxCell>
        <mxCell id="6EGxL7kNXMzWIibjKUPJ-26" value="" style="endArrow=classic;html=1;rounded=0;entryX=1;entryY=0.5;entryDx=0;entryDy=0;" parent="1" target="6EGxL7kNXMzWIibjKUPJ-25" edge="1">
          <mxGeometry width="50" height="50" relative="1" as="geometry">
            <mxPoint x="-50" y="510" as="sourcePoint" />
            <mxPoint x="30" y="590" as="targetPoint" />
          </mxGeometry>
        </mxCell>
        <mxCell id="6EGxL7kNXMzWIibjKUPJ-27" value="&lt;span style=&quot;font-family: &amp;quot;Times New Roman&amp;quot;, serif;&quot;&gt;&lt;font style=&quot;font-size: 12px;&quot;&gt;&amp;nbsp;отчёты по прибыли и возвратам&lt;/font&gt;&lt;/span&gt;" style="ellipse;whiteSpace=wrap;html=1;" parent="1" vertex="1">
          <mxGeometry x="60" y="540" width="160" height="50" as="geometry" />
        </mxCell>
        <mxCell id="6EGxL7kNXMzWIibjKUPJ-28" value="" style="endArrow=classic;html=1;rounded=0;entryX=0.039;entryY=0.312;entryDx=0;entryDy=0;entryPerimeter=0;" parent="1" target="6EGxL7kNXMzWIibjKUPJ-27" edge="1">
          <mxGeometry width="50" height="50" relative="1" as="geometry">
            <mxPoint x="20" y="540" as="sourcePoint" />
            <mxPoint x="70" y="550" as="targetPoint" />
            <Array as="points">
              <mxPoint x="-30" y="510" />
              <mxPoint x="20" y="540" />
            </Array>
          </mxGeometry>
        </mxCell>
        <mxCell id="6EGxL7kNXMzWIibjKUPJ-40" value="&lt;b&gt;&lt;span style=&quot;font-size:14.0pt;font-family:&amp;quot;Times New Roman&amp;quot;,serif;&lt;br/&gt;mso-fareast-font-family:&amp;quot;Times New Roman&amp;quot;;mso-ansi-language:#1000;mso-fareast-language:&lt;br/&gt;#1000;mso-bidi-language:AR-SA&quot;&gt;Менеджер&lt;/span&gt;&lt;/b&gt;" style="shape=umlActor;verticalLabelPosition=bottom;verticalAlign=top;html=1;outlineConnect=0;" parent="1" vertex="1">
          <mxGeometry x="450" y="470" width="20" height="60" as="geometry" />
        </mxCell>
        <mxCell id="6EGxL7kNXMzWIibjKUPJ-41" value="&lt;span style=&quot;font-family: &amp;quot;Times New Roman&amp;quot;, serif;&quot;&gt;&lt;font style=&quot;font-size: 12px;&quot;&gt;проверка оплаты заказов&lt;/font&gt;&lt;/span&gt;" style="ellipse;whiteSpace=wrap;html=1;" parent="1" vertex="1">
          <mxGeometry x="510" y="380" width="130" height="50" as="geometry" />
        </mxCell>
        <mxCell id="6EGxL7kNXMzWIibjKUPJ-42" value="" style="endArrow=classic;html=1;rounded=0;entryX=0;entryY=1;entryDx=0;entryDy=0;exitX=1;exitY=0.3333333333333333;exitDx=0;exitDy=0;exitPerimeter=0;" parent="1" target="6EGxL7kNXMzWIibjKUPJ-41" edge="1" source="6EGxL7kNXMzWIibjKUPJ-40">
          <mxGeometry width="50" height="50" relative="1" as="geometry">
            <mxPoint x="480" y="460" as="sourcePoint" />
            <mxPoint x="670" y="460" as="targetPoint" />
          </mxGeometry>
        </mxCell>
        <mxCell id="6EGxL7kNXMzWIibjKUPJ-43" value="&lt;font face=&quot;Times New Roman, serif&quot;&gt;обработка заказов&lt;/font&gt;" style="ellipse;whiteSpace=wrap;html=1;" parent="1" vertex="1">
          <mxGeometry x="260" y="570" width="120" height="50" as="geometry" />
        </mxCell>
        <mxCell id="6EGxL7kNXMzWIibjKUPJ-44" value="" style="endArrow=classic;html=1;rounded=0;entryX=0.563;entryY=0.034;entryDx=0;entryDy=0;entryPerimeter=0;" parent="1" target="6EGxL7kNXMzWIibjKUPJ-43" edge="1">
          <mxGeometry width="50" height="50" relative="1" as="geometry">
            <mxPoint x="450" y="490" as="sourcePoint" />
            <mxPoint x="790" y="590" as="targetPoint" />
          </mxGeometry>
        </mxCell>
        <mxCell id="6EGxL7kNXMzWIibjKUPJ-45" value="&lt;font face=&quot;Times New Roman, serif&quot;&gt;решение вопросов по закзам&lt;/font&gt;" style="ellipse;whiteSpace=wrap;html=1;" parent="1" vertex="1">
          <mxGeometry x="300" y="350" width="120" height="60" as="geometry" />
        </mxCell>
        <mxCell id="6EGxL7kNXMzWIibjKUPJ-46" value="" style="endArrow=classic;html=1;rounded=0;entryX=0.682;entryY=0.947;entryDx=0;entryDy=0;entryPerimeter=0;exitX=0;exitY=0.3333333333333333;exitDx=0;exitDy=0;exitPerimeter=0;" parent="1" target="6EGxL7kNXMzWIibjKUPJ-45" edge="1" source="6EGxL7kNXMzWIibjKUPJ-40">
          <mxGeometry width="50" height="50" relative="1" as="geometry">
            <mxPoint x="430" y="460" as="sourcePoint" />
            <mxPoint x="530" y="480" as="targetPoint" />
          </mxGeometry>
        </mxCell>
        <mxCell id="6EGxL7kNXMzWIibjKUPJ-47" value="&lt;span style=&quot;font-family: &amp;quot;Times New Roman&amp;quot;, serif;&quot;&gt;&lt;font style=&quot;font-size: 12px;&quot;&gt;подтверждение заказов и смена их статусов&lt;/font&gt;&lt;/span&gt;" style="ellipse;whiteSpace=wrap;html=1;" parent="1" vertex="1">
          <mxGeometry x="230" y="460" width="140" height="50" as="geometry" />
        </mxCell>
        <mxCell id="6EGxL7kNXMzWIibjKUPJ-48" value="" style="endArrow=classic;html=1;rounded=0;entryX=1;entryY=0.5;entryDx=0;entryDy=0;exitX=0;exitY=0.3333333333333333;exitDx=0;exitDy=0;exitPerimeter=0;" parent="1" target="6EGxL7kNXMzWIibjKUPJ-47" edge="1" source="6EGxL7kNXMzWIibjKUPJ-40">
          <mxGeometry width="50" height="50" relative="1" as="geometry">
            <mxPoint x="430" y="490" as="sourcePoint" />
            <mxPoint x="530" y="570" as="targetPoint" />
          </mxGeometry>
        </mxCell>
        <mxCell id="6EGxL7kNXMzWIibjKUPJ-49" value="&lt;font face=&quot;Times New Roman, serif&quot;&gt;разрешение спроных ситуаций с проблемными заказми&lt;/font&gt;" style="ellipse;whiteSpace=wrap;html=1;" parent="1" vertex="1">
          <mxGeometry x="560" y="520" width="160" height="50" as="geometry" />
        </mxCell>
        <mxCell id="6EGxL7kNXMzWIibjKUPJ-50" value="" style="endArrow=classic;html=1;rounded=0;entryX=0.039;entryY=0.312;entryDx=0;entryDy=0;entryPerimeter=0;" parent="1" target="6EGxL7kNXMzWIibjKUPJ-49" edge="1">
          <mxGeometry width="50" height="50" relative="1" as="geometry">
            <mxPoint x="470" y="490" as="sourcePoint" />
            <mxPoint x="570" y="530" as="targetPoint" />
          </mxGeometry>
        </mxCell>
        <mxCell id="6EGxL7kNXMzWIibjKUPJ-51" value="&lt;span style=&quot;font-family: &amp;quot;Times New Roman&amp;quot;, serif;&quot;&gt;&lt;font style=&quot;font-size: 12px;&quot;&gt;обработка возвратов&lt;/font&gt;&lt;/span&gt;" style="ellipse;whiteSpace=wrap;html=1;" parent="1" vertex="1">
          <mxGeometry x="550" y="450" width="130" height="50" as="geometry" />
        </mxCell>
        <mxCell id="6EGxL7kNXMzWIibjKUPJ-52" value="" style="endArrow=classic;html=1;rounded=0;entryX=0.007;entryY=0.596;entryDx=0;entryDy=0;entryPerimeter=0;exitX=1;exitY=0.3333333333333333;exitDx=0;exitDy=0;exitPerimeter=0;" parent="1" target="6EGxL7kNXMzWIibjKUPJ-51" edge="1" source="6EGxL7kNXMzWIibjKUPJ-40">
          <mxGeometry width="50" height="50" relative="1" as="geometry">
            <mxPoint x="490" y="490" as="sourcePoint" />
            <mxPoint x="560" y="460" as="targetPoint" />
          </mxGeometry>
        </mxCell>
        <mxCell id="3OffWxtnfrzgmbcsBv6L-9" value="" style="endArrow=classic;html=1;rounded=0;entryX=0;entryY=0.333;entryDx=0;entryDy=0;entryPerimeter=0;" edge="1" parent="1" target="HpewmkDFTjrqtG-DgkF_-11">
          <mxGeometry width="50" height="50" relative="1" as="geometry">
            <mxPoint x="110" y="200" as="sourcePoint" />
            <mxPoint x="210" y="188" as="targetPoint" />
          </mxGeometry>
        </mxCell>
        <mxCell id="3OffWxtnfrzgmbcsBv6L-10" value="&lt;font face=&quot;Times New Roman, serif&quot;&gt;уведомления о статусе заказа(подтвержден,отправлен,,доставлен)&lt;/font&gt;" style="ellipse;whiteSpace=wrap;html=1;" vertex="1" parent="1">
          <mxGeometry x="-280" y="180" width="220" height="60" as="geometry" />
        </mxCell>
        <mxCell id="3OffWxtnfrzgmbcsBv6L-11" value="" style="endArrow=classic;html=1;rounded=0;entryX=1;entryY=0.5;entryDx=0;entryDy=0;exitX=0;exitY=0.3333333333333333;exitDx=0;exitDy=0;exitPerimeter=0;" edge="1" parent="1" source="HpewmkDFTjrqtG-DgkF_-1" target="3OffWxtnfrzgmbcsBv6L-10">
          <mxGeometry width="50" height="50" relative="1" as="geometry">
            <mxPoint x="90" y="210" as="sourcePoint" />
            <mxPoint x="-27" y="136" as="targetPoint" />
            <Array as="points" />
          </mxGeometry>
        </mxCell>
        <mxCell id="3OffWxtnfrzgmbcsBv6L-12" value="&lt;font face=&quot;Times New Roman, serif&quot;&gt;отслеживание товара&lt;/font&gt;" style="ellipse;whiteSpace=wrap;html=1;" vertex="1" parent="1">
          <mxGeometry x="180" y="280" width="160" height="50" as="geometry" />
        </mxCell>
        <mxCell id="3OffWxtnfrzgmbcsBv6L-14" value="" style="endArrow=classic;html=1;rounded=0;entryX=0.41;entryY=0.012;entryDx=0;entryDy=0;entryPerimeter=0;exitX=1;exitY=0.3333333333333333;exitDx=0;exitDy=0;exitPerimeter=0;" edge="1" parent="1" source="HpewmkDFTjrqtG-DgkF_-1" target="3OffWxtnfrzgmbcsBv6L-12">
          <mxGeometry width="50" height="50" relative="1" as="geometry">
            <mxPoint x="187" y="280" as="sourcePoint" />
            <mxPoint x="70" y="206" as="targetPoint" />
          </mxGeometry>
        </mxCell>
        <mxCell id="3OffWxtnfrzgmbcsBv6L-15" value="&lt;font face=&quot;Times New Roman, serif&quot;&gt;оставить отзыв&lt;/font&gt;" style="ellipse;whiteSpace=wrap;html=1;" vertex="1" parent="1">
          <mxGeometry x="-260" y="110" width="120" height="50" as="geometry" />
        </mxCell>
        <mxCell id="3OffWxtnfrzgmbcsBv6L-16" value="" style="endArrow=classic;html=1;rounded=0;" edge="1" parent="1">
          <mxGeometry width="50" height="50" relative="1" as="geometry">
            <mxPoint x="80" y="200" as="sourcePoint" />
            <mxPoint x="-140" y="140" as="targetPoint" />
          </mxGeometry>
        </mxCell>
        <mxCell id="3OffWxtnfrzgmbcsBv6L-20" value="" style="endArrow=block;dashed=1;endFill=0;endSize=12;html=1;rounded=0;entryX=0.328;entryY=0.959;entryDx=0;entryDy=0;entryPerimeter=0;exitX=0;exitY=0;exitDx=0;exitDy=0;" edge="1" parent="1" source="6EGxL7kNXMzWIibjKUPJ-23" target="3OffWxtnfrzgmbcsBv6L-10">
          <mxGeometry width="160" relative="1" as="geometry">
            <mxPoint x="-220" y="433.18" as="sourcePoint" />
            <mxPoint x="-222.58000000000015" y="199.99999999999994" as="targetPoint" />
          </mxGeometry>
        </mxCell>
        <mxCell id="3OffWxtnfrzgmbcsBv6L-21" value="" style="endArrow=block;dashed=1;endFill=0;endSize=12;html=1;rounded=0;entryX=0.5;entryY=1;entryDx=0;entryDy=0;exitX=0;exitY=0;exitDx=0;exitDy=0;" edge="1" parent="1" target="3OffWxtnfrzgmbcsBv6L-12">
          <mxGeometry width="160" relative="1" as="geometry">
            <mxPoint x="278" y="461" as="sourcePoint" />
            <mxPoint x="252" y="320" as="targetPoint" />
          </mxGeometry>
        </mxCell>
        <mxCell id="3OffWxtnfrzgmbcsBv6L-23" value="include" style="text;html=1;align=center;verticalAlign=middle;whiteSpace=wrap;rounded=0;rotation=0;" vertex="1" parent="1">
          <mxGeometry x="-230" y="290" width="60" height="30" as="geometry" />
        </mxCell>
        <mxCell id="3OffWxtnfrzgmbcsBv6L-25" value="include" style="text;html=1;align=center;verticalAlign=middle;whiteSpace=wrap;rounded=0;rotation=0;" vertex="1" parent="1">
          <mxGeometry x="230" y="380" width="60" height="30" as="geometry" />
        </mxCell>
        <mxCell id="3OffWxtnfrzgmbcsBv6L-26" value="&lt;font face=&quot;Times New Roman, serif&quot;&gt;задать вопрос по заказу&lt;/font&gt;" style="ellipse;whiteSpace=wrap;html=1;" vertex="1" parent="1">
          <mxGeometry x="220" y="210" width="160" height="50" as="geometry" />
        </mxCell>
        <mxCell id="3OffWxtnfrzgmbcsBv6L-27" value="" style="endArrow=classic;html=1;rounded=0;entryX=0.063;entryY=0.2;entryDx=0;entryDy=0;entryPerimeter=0;" edge="1" parent="1" target="3OffWxtnfrzgmbcsBv6L-26">
          <mxGeometry width="50" height="50" relative="1" as="geometry">
            <mxPoint x="120" y="200" as="sourcePoint" />
            <mxPoint x="270" y="200" as="targetPoint" />
          </mxGeometry>
        </mxCell>
        <mxCell id="3OffWxtnfrzgmbcsBv6L-28" value="" style="endArrow=block;dashed=1;endFill=0;endSize=12;html=1;rounded=0;exitX=0.5;exitY=0;exitDx=0;exitDy=0;entryX=1;entryY=1;entryDx=0;entryDy=0;" edge="1" parent="1" source="6EGxL7kNXMzWIibjKUPJ-45" target="3OffWxtnfrzgmbcsBv6L-26">
          <mxGeometry width="160" relative="1" as="geometry">
            <mxPoint x="370" y="380" as="sourcePoint" />
            <mxPoint x="352" y="260" as="targetPoint" />
          </mxGeometry>
        </mxCell>
        <mxCell id="3OffWxtnfrzgmbcsBv6L-29" value="include" style="text;html=1;align=center;verticalAlign=middle;whiteSpace=wrap;rounded=0;rotation=0;" vertex="1" parent="1">
          <mxGeometry x="330" y="300" width="60" height="30" as="geometry" />
        </mxCell>
      </root>
    </mxGraphModel>
  </diagram>
</mxfile>
